<?xml version="1.0" encoding="utf-8"?>
<svg xmlns="http://www.w3.org/2000/svg" viewBox="115.451 26.311 249.07 229.829" xmlns:bx="https://boxy-svg.com">
  <defs>
    <bx:export>
      <bx:file format="png" href="#svg5" width="128" height="128"/>
      <bx:file format="png" path="Untitled 2.png" background="#fff0" width="128" height="128"/>
      <bx:file format="png" href="#object-0" path="Untitled 3.png"/>
    </bx:export>
  </defs>
  <g id="svg5" style="" transform="matrix(7.276385, 0, 0, 7.276385, -1234.382812, -856.032227)">
    <g id="layer2" transform="matrix(1, 0, 0, 1, 108.621468, 11.648664)"/>
    <g id="layer1" transform="matrix(1, 0, 0, 1, 108.621468, 11.648664)">
      <path style="fill: rgb(255, 255, 255); stroke: rgb(148, 148, 148); stroke-width: 1; stroke-linecap: round; stroke-linejoin: round; stroke-dasharray: none; fill-opacity: 1; stroke-opacity: 1;" d="m 84.587647,123.07964 -0.9972,0.12465 -0.89748,0.47367 -1.19665,0.92241 -0.94734,0.92241 -0.64818,1.04706 -0.57339,1.24651 -0.19944,1.2465 -0.0499,1.84482 0.32409,1.37115 0.94734,1.69525 1.34623,1.12185 1.94454,0.62325 h 1.86975 l 1.64539,-0.62325 0.94734,-0.7479 0.94734,-1.12185 0.4986,-0.89748 0.39888,-0.99721 0.12465,-0.29916 1.89469,0.4986 -0.2493,0.62325 9.523273,-4.38768 1.44595,0.34902 1.64538,0.44874 1.57059,-0.54846 0.94735,-0.69805 0.77283,-1.02213 0.62325,-1.91961 0.17451,-1.52073 -0.0997,-1.19665 -0.39888,-1.42101 -0.84762,-1.12185 -0.84762,-0.4986 -0.87256,-0.32409 -1.4958,0.0249 -0.59832,0.39888 -0.94734,0.72297 -0.4986,0.69805 -0.39889,0.52353 -0.29916,0.57339 -0.0499,0.32409 -2.119053,-1.54566 -0.14958,-0.32409 0.57339,-0.39889 2.866963,-2.59272 -0.0499,-0.29916 -0.2493,-0.12465 -1.27144,-0.0997 -3.340623,1.81989 -0.52354,-0.32409 -2.69244,-0.34902 -0.9972,0.2493 -1.04706,0.54846 -0.24931,-0.22437 -0.44873,-0.0499 -0.32409,0.17451 -1.74511,-0.27423 0.19944,-0.14958 -0.2493,-0.12465 h -0.47367 l -3.0664,2.5678 -0.24929,0.4986 -0.0249,0.37395 z" id="path360"/>
      <path style="stroke: rgb(142, 142, 142); fill: rgba(216, 216, 216, 0); stroke-width: 0.989502px;" d="M 89.053 127.697 C 88.734 126.235 88.111 124.543 85.377 125.426 C 83.023 126.204 82.177 128.333 82.322 131.134 C 82.547 133.679 84.98 134.7 86.677 133.618 C 88.651 132.36 89.176 130.329 89.053 127.697 Z" id="object-0"/>
      <path style="stroke: rgb(142, 142, 142); fill: rgba(216, 216, 216, 0); stroke-width: 0.989502px;" d="M 106.909 122.323 C 106.72 121.278 106.351 120.069 104.734 120.699 C 103.342 121.256 102.843 122.778 102.928 124.779 C 103.061 126.599 104.5 127.328 105.504 126.555 C 106.671 125.656 106.982 124.204 106.909 122.323 Z" id="path-1"/>
    </g>
  </g>
</svg>