# WaveFront *.obj file (generated by CINEMA 4D)

v 0 -0.5 0
v 0 0.5 0
v 0.25 -0.5 0
v 0.25 0.5 0
v 0.24620193243027 -0.5 -0.04341204464436
v 0.24620193243027 0.5 -0.04341204464436
v 0.23492313921452 -0.5 -0.08550503849983
v 0.23492313921452 0.5 -0.08550503849983
v 0.2165063470602 -0.5 -0.125
v 0.2165063470602 0.5 -0.125
v 0.19151110947132 -0.5 -0.16069689393044
v 0.19151110947132 0.5 -0.16069689393044
v 0.16069689393044 -0.5 -0.19151110947132
v 0.16069689393044 0.5 -0.19151110947132
v 0.125 -0.5 -0.2165063470602
v 0.125 0.5 -0.2165063470602
v 0.08550503849983 -0.5 -0.23492313921452
v 0.08550503849983 0.5 -0.23492313921452
v 0.04341204464436 -0.5 -0.24620193243027
v 0.04341204464436 0.5 -0.24620193243027
v 0 -0.5 -0.25
v 0 0.5 -0.25
v -0.04341204464436 -0.5 -0.24620193243027
v -0.04341204464436 0.5 -0.24620193243027
v -0.08550503849983 -0.5 -0.23492313921452
v -0.08550503849983 0.5 -0.23492313921452
v -0.125 -0.5 -0.2165063470602
v -0.125 0.5 -0.2165063470602
v -0.16069689393044 -0.5 -0.19151110947132
v -0.16069689393044 0.5 -0.19151110947132
v -0.19151110947132 -0.5 -0.16069689393044
v -0.19151110947132 0.5 -0.16069689393044
v -0.2165063470602 -0.5 -0.125
v -0.2165063470602 0.5 -0.125
v -0.23492313921452 -0.5 -0.08550503849983
v -0.23492313921452 0.5 -0.08550503849983
v -0.24620193243027 -0.5 -0.04341204464436
v -0.24620193243027 0.5 -0.04341204464436
v -0.25 -0.5 -0
v -0.25 0.5 -0
v -0.24620193243027 -0.5 0.04341204464436
v -0.24620193243027 0.5 0.04341204464436
v -0.23492313921452 -0.5 0.08550503849983
v -0.23492313921452 0.5 0.08550503849983
v -0.2165063470602 -0.5 0.125
v -0.2165063470602 0.5 0.125
v -0.19151110947132 -0.5 0.16069689393044
v -0.19151110947132 0.5 0.16069689393044
v -0.16069689393044 -0.5 0.19151110947132
v -0.16069689393044 0.5 0.19151110947132
v -0.125 -0.5 0.2165063470602
v -0.125 0.5 0.2165063470602
v -0.08550503849983 -0.5 0.23492313921452
v -0.08550503849983 0.5 0.23492313921452
v -0.04341204464436 -0.5 0.24620193243027
v -0.04341204464436 0.5 0.24620193243027
v -0 -0.5 0.25
v -0 0.5 0.25
v 0.04341204464436 -0.5 0.24620193243027
v 0.04341204464436 0.5 0.24620193243027
v 0.08550503849983 -0.5 0.23492313921452
v 0.08550503849983 0.5 0.23492313921452
v 0.125 -0.5 0.2165063470602
v 0.125 0.5 0.2165063470602
v 0.16069689393044 -0.5 0.19151110947132
v 0.16069689393044 0.5 0.19151110947132
v 0.19151110947132 -0.5 0.16069689393044
v 0.19151110947132 0.5 0.16069689393044
v 0.2165063470602 -0.5 0.125
v 0.2165063470602 0.5 0.125
v 0.23492313921452 -0.5 0.08550503849983
v 0.23492313921452 0.5 0.08550503849983
v 0.24620193243027 -0.5 0.04341204464436
v 0.24620193243027 0.5 0.04341204464436
# 74 vertices

vn 0 -1 0
vn 1 0 0
vn 0.98481088876724 0 -0.17363023757935
vn 0 1 0
vn 0.93969851732254 0 -0.34200400114059
vn 0.86603260040283 0 -0.49998754262924
vn 0.76604211330414 0 -0.64279037714005
vn 0.64279037714005 0 -0.76604211330414
vn 0.49998754262924 0 -0.86603260040283
vn 0.34200400114059 0 -0.93969851732254
vn 0.17363023757935 0 -0.98481088876724
vn 0 0 -1
vn -0.17363023757935 0 -0.98481088876724
vn -0.34200400114059 0 -0.93969851732254
vn -0.49998754262924 0 -0.86603260040283
vn -0.64279037714005 0 -0.76604211330414
vn -0.76604211330414 0 -0.64279037714005
vn -0.86603260040283 0 -0.49998754262924
vn -0.93969851732254 0 -0.34200400114059
vn -0.98481088876724 0 -0.17363023757935
vn -1 0 0
vn -0.98481088876724 0 0.17363023757935
vn -0.93969851732254 0 0.34200400114059
vn -0.86603260040283 0 0.49998754262924
vn -0.76604211330414 0 0.64279037714005
vn -0.64279037714005 0 0.76604211330414
vn -0.49998754262924 0 0.86603260040283
vn -0.34200400114059 0 0.93969851732254
vn -0.17363023757935 0 0.98481088876724
vn 0 0 1
vn 0.17363023757935 0 0.98481088876724
vn 0.34200400114059 0 0.93969851732254
vn 0.49998754262924 0 0.86603260040283
vn 0.64279037714005 0 0.76604211330414
vn 0.76604211330414 0 0.64279037714005
vn 0.86603260040283 0 0.49998754262924
vn 0.93969851732254 0 0.34200400114059
vn 0.98481088876724 0 0.17363023757935
# 38 normals

vt 0.5 0.5 0
vt 0 0.5 0
vt 0.00759612349793 0.58682411909103 0
vt 0 0 0
vt 0 1 0
vt 0.02777777798474 1 0
vt 0.02777777798474 0 0
vt 1 0.5 0
vt 0.99240386486053 0.58682411909103 0
vt 0.030153689906 0.67101007699966 0
vt 0.05555555596948 1 0
vt 0.05555555596948 0 0
vt 0.96984630823135 0.67101007699966 0
vt 0.06698729842901 0.75 0
vt 0.08333333581686 1 0
vt 0.08333333581686 0 0
vt 0.93301272392273 0.75 0
vt 0.11697778105736 0.82139384746552 0
vt 0.11111111193895 1 0
vt 0.11111111193895 0 0
vt 0.88302224874496 0.82139384746552 0
vt 0.17860619723797 0.88302218914032 0
vt 0.13888889551163 1 0
vt 0.13888889551163 0 0
vt 0.82139378786087 0.88302218914032 0
vt 0.25 0.93301272392273 0
vt 0.16666667163372 1 0
vt 0.16666667163372 0 0
vt 0.75 0.93301272392273 0
vt 0.32898992300034 0.96984630823135 0
vt 0.19444444775581 1 0
vt 0.19444444775581 0 0
vt 0.67101007699966 0.96984630823135 0
vt 0.41317591071129 0.99240386486053 0
vt 0.22222222387791 1 0
vt 0.22222222387791 0 0
vt 0.58682405948639 0.99240386486053 0
vt 0.5 1 0
vt 0.25 1 0
vt 0.25 0 0
vt 0.27777779102325 1 0
vt 0.27777779102325 0 0
vt 0.30555555224419 1 0
vt 0.30555555224419 0 0
vt 0.33333334326744 1 0
vt 0.33333334326744 0 0
vt 0.36111110448837 1 0
vt 0.36111110448837 0 0
vt 0.38888889551163 1 0
vt 0.38888889551163 0 0
vt 0.41666665673256 1 0
vt 0.41666665673256 0 0
vt 0.44444444775581 1 0
vt 0.44444444775581 0 0
vt 0.47222220897675 1 0
vt 0.47222220897675 0 0
vt 0.5 0 0
vt 0.99240386486053 0.41317594051361 0
vt 0.52777779102325 1 0
vt 0.52777779102325 0 0
vt 0.00759612349793 0.41317594051361 0
vt 0.96984630823135 0.32898998260498 0
vt 0.55555558204651 1 0
vt 0.55555558204651 0 0
vt 0.030153689906 0.32898998260498 0
vt 0.93301272392273 0.25 0
vt 0.58333331346512 1 0
vt 0.58333331346512 0 0
vt 0.06698729842901 0.25 0
vt 0.88302224874496 0.17860627174377 0
vt 0.61111110448837 1 0
vt 0.61111110448837 0 0
vt 0.11697778105736 0.17860627174377 0
vt 0.82139378786087 0.11697781085968 0
vt 0.63888889551163 1 0
vt 0.63888889551163 0 0
vt 0.17860619723797 0.11697781085968 0
vt 0.75 0.06698727607727 0
vt 0.66666668653488 1 0
vt 0.66666668653488 0 0
vt 0.25 0.06698727607727 0
vt 0.67101007699966 0.03015375137329 0
vt 0.69444441795349 1 0
vt 0.69444441795349 0 0
vt 0.32898992300034 0.03015375137329 0
vt 0.58682405948639 0.00759613513947 0
vt 0.72222220897675 1 0
vt 0.72222220897675 0 0
vt 0.41317591071129 0.00759613513947 0
vt 0.75 1 0
vt 0.75 0 0
vt 0.77777779102325 1 0
vt 0.77777779102325 0 0
vt 0.80555558204651 1 0
vt 0.80555558204651 0 0
vt 0.83333331346512 1 0
vt 0.83333331346512 0 0
vt 0.86111110448837 1 0
vt 0.86111110448837 0 0
vt 0.88888889551163 1 0
vt 0.88888889551163 0 0
vt 0.91666668653488 1 0
vt 0.91666668653488 0 0
vt 0.94444441795349 1 0
vt 0.94444441795349 0 0
vt 0.97222220897675 1 0
vt 0.97222220897675 0 0
vt 1 1 0
vt 1 0 0
# 109 texture coordinates

o Cylinder
usemtl default
f 5/3/1 3/2/1 1/1/1
f 5/7/3 6/6/3 4/5/2 3/4/2
f 6/9/4 2/1/4 4/8/4
f 7/10/1 5/3/1 1/1/1
f 7/12/5 8/11/5 6/6/3 5/7/3
f 8/13/4 2/1/4 6/9/4
f 9/14/1 7/10/1 1/1/1
f 9/16/6 10/15/6 8/11/5 7/12/5
f 10/17/4 2/1/4 8/13/4
f 11/18/1 9/14/1 1/1/1
f 11/20/7 12/19/7 10/15/6 9/16/6
f 12/21/4 2/1/4 10/17/4
f 13/22/1 11/18/1 1/1/1
f 13/24/8 14/23/8 12/19/7 11/20/7
f 14/25/4 2/1/4 12/21/4
f 15/26/1 13/22/1 1/1/1
f 15/28/9 16/27/9 14/23/8 13/24/8
f 16/29/4 2/1/4 14/25/4
f 17/30/1 15/26/1 1/1/1
f 17/32/10 18/31/10 16/27/9 15/28/9
f 18/33/4 2/1/4 16/29/4
f 19/34/1 17/30/1 1/1/1
f 19/36/11 20/35/11 18/31/10 17/32/10
f 20/37/4 2/1/4 18/33/4
f 21/38/1 19/34/1 1/1/1
f 21/40/12 22/39/12 20/35/11 19/36/11
f 22/38/4 2/1/4 20/37/4
f 23/37/1 21/38/1 1/1/1
f 23/42/13 24/41/13 22/39/12 21/40/12
f 24/34/4 2/1/4 22/38/4
f 25/33/1 23/37/1 1/1/1
f 25/44/14 26/43/14 24/41/13 23/42/13
f 26/30/4 2/1/4 24/34/4
f 27/29/1 25/33/1 1/1/1
f 27/46/15 28/45/15 26/43/14 25/44/14
f 28/26/4 2/1/4 26/30/4
f 29/25/1 27/29/1 1/1/1
f 29/48/16 30/47/16 28/45/15 27/46/15
f 30/22/4 2/1/4 28/26/4
f 31/21/1 29/25/1 1/1/1
f 31/50/17 32/49/17 30/47/16 29/48/16
f 32/18/4 2/1/4 30/22/4
f 33/17/1 31/21/1 1/1/1
f 33/52/18 34/51/18 32/49/17 31/50/17
f 34/14/4 2/1/4 32/18/4
f 35/13/1 33/17/1 1/1/1
f 35/54/19 36/53/19 34/51/18 33/52/18
f 36/10/4 2/1/4 34/14/4
f 37/9/1 35/13/1 1/1/1
f 37/56/20 38/55/20 36/53/19 35/54/19
f 38/3/4 2/1/4 36/10/4
f 39/8/1 37/9/1 1/1/1
f 39/57/21 40/38/21 38/55/20 37/56/20
f 40/2/4 2/1/4 38/3/4
f 41/58/1 39/8/1 1/1/1
f 41/60/22 42/59/22 40/38/21 39/57/21
f 42/61/4 2/1/4 40/2/4
f 43/62/1 41/58/1 1/1/1
f 43/64/23 44/63/23 42/59/22 41/60/22
f 44/65/4 2/1/4 42/61/4
f 45/66/1 43/62/1 1/1/1
f 45/68/24 46/67/24 44/63/23 43/64/23
f 46/69/4 2/1/4 44/65/4
f 47/70/1 45/66/1 1/1/1
f 47/72/25 48/71/25 46/67/24 45/68/24
f 48/73/4 2/1/4 46/69/4
f 49/74/1 47/70/1 1/1/1
f 49/76/26 50/75/26 48/71/25 47/72/25
f 50/77/4 2/1/4 48/73/4
f 51/78/1 49/74/1 1/1/1
f 51/80/27 52/79/27 50/75/26 49/76/26
f 52/81/4 2/1/4 50/77/4
f 53/82/1 51/78/1 1/1/1
f 53/84/28 54/83/28 52/79/27 51/80/27
f 54/85/4 2/1/4 52/81/4
f 55/86/1 53/82/1 1/1/1
f 55/88/29 56/87/29 54/83/28 53/84/28
f 56/89/4 2/1/4 54/85/4
f 57/57/1 55/86/1 1/1/1
f 57/91/30 58/90/30 56/87/29 55/88/29
f 58/57/4 2/1/4 56/89/4
f 59/89/1 57/57/1 1/1/1
f 59/93/31 60/92/31 58/90/30 57/91/30
f 60/86/4 2/1/4 58/57/4
f 61/85/1 59/89/1 1/1/1
f 61/95/32 62/94/32 60/92/31 59/93/31
f 62/82/4 2/1/4 60/86/4
f 63/81/1 61/85/1 1/1/1
f 63/97/33 64/96/33 62/94/32 61/95/32
f 64/78/4 2/1/4 62/82/4
f 65/77/1 63/81/1 1/1/1
f 65/99/34 66/98/34 64/96/33 63/97/33
f 66/74/4 2/1/4 64/78/4
f 67/73/1 65/77/1 1/1/1
f 67/101/35 68/100/35 66/98/34 65/99/34
f 68/70/4 2/1/4 66/74/4
f 69/69/1 67/73/1 1/1/1
f 69/103/36 70/102/36 68/100/35 67/101/35
f 70/66/4 2/1/4 68/70/4
f 71/65/1 69/69/1 1/1/1
f 71/105/37 72/104/37 70/102/36 69/103/36
f 72/62/4 2/1/4 70/66/4
f 73/61/1 71/65/1 1/1/1
f 73/107/38 74/106/38 72/104/37 71/105/37
f 74/58/4 2/1/4 72/62/4
f 3/2/1 73/61/1 1/1/1
f 3/109/2 4/108/2 74/106/38 73/107/38
f 4/8/4 2/1/4 74/58/4

